<svg width="700" height="550" viewBox="0 0 700 550" fill="none" xmlns="http://www.w3.org/2000/svg">
<g clip-path="url(#clip0)">
<path d="M68.8389 146.176C106.858 146.176 137.678 113.453 137.678 73.0878C137.678 32.7225 106.858 0 68.8389 0C30.8202 0 0 32.7225 0 73.0878C0 113.453 30.8202 146.176 68.8389 146.176Z" fill="#F0F0F0"/>
<path d="M631.161 309.963C669.18 309.963 700 277.24 700 236.875C700 196.509 669.18 163.787 631.161 163.787C593.143 163.787 562.322 196.509 562.322 236.875C562.322 277.24 593.143 309.963 631.161 309.963Z" fill="#F0F0F0"/>
<path d="M416.115 544.082L404.013 538.672L395.71 474.256H285.15L276.15 538.409L265.323 544.156C264.805 544.431 264.389 544.884 264.144 545.441C263.898 545.998 263.837 546.627 263.97 547.225C264.103 547.824 264.423 548.357 264.877 548.739C265.331 549.12 265.893 549.328 266.473 549.328H415.118C415.711 549.328 416.287 549.11 416.746 548.711C417.205 548.312 417.521 547.756 417.638 547.139C417.756 546.521 417.668 545.879 417.391 545.322C417.113 544.765 416.662 544.327 416.115 544.082Z" fill="#E6E6E6"/>
<path d="M612.589 482.826H69.4843C66.6348 482.82 63.9042 481.613 61.8915 479.471C59.8789 477.33 58.7486 474.428 58.7485 471.402V390.091H623.325V471.402C623.325 474.428 622.195 477.33 620.182 479.471C618.169 481.613 615.439 482.82 612.589 482.826Z" fill="#CCCCCC"/>
<path d="M623.893 428.521H58.2528V80.6042C58.2568 76.953 59.6247 73.4525 62.0564 70.8708C64.4882 68.2891 67.7851 66.8369 71.2241 66.8328H610.921C614.36 66.8368 617.657 68.2891 620.089 70.8708C622.521 73.4525 623.889 76.9529 623.893 80.6042V428.521Z" fill="#2C5364"/>
<path d="M590.109 403.269H92.0363C89.3851 403.266 86.8433 402.146 84.9686 400.156C83.0939 398.165 82.0394 395.467 82.0364 392.652V102.701C82.0393 99.8864 83.0938 97.1877 84.9685 95.1972C86.8432 93.2068 89.385 92.0871 92.0363 92.0839H590.109C592.76 92.0871 595.302 93.2068 597.177 95.1972C599.052 97.1877 600.106 99.8864 600.109 102.701V392.652C600.106 395.467 599.052 398.165 597.177 400.156C595.302 402.146 592.76 403.266 590.109 403.269Z" fill="white"/>
<path d="M480.758 550H200.883C200.597 550.006 200.316 549.912 200.085 549.731C199.854 549.551 199.686 549.294 199.607 549.002C199.558 548.803 199.552 548.594 199.59 548.392C199.629 548.19 199.71 548 199.828 547.837C199.947 547.674 200.099 547.542 200.273 547.451C200.447 547.36 200.638 547.312 200.832 547.312H480.654C480.956 547.301 481.253 547.399 481.497 547.589C481.74 547.78 481.915 548.053 481.994 548.363C482.035 548.56 482.034 548.764 481.991 548.96C481.948 549.156 481.864 549.339 481.745 549.496C481.627 549.653 481.476 549.78 481.305 549.867C481.134 549.955 480.947 550 480.758 550Z" fill="#CCCCCC"/>
<path d="M533.653 351.652H428.714C428.453 351.675 428.194 351.589 427.992 351.412C427.79 351.234 427.661 350.98 427.634 350.703V260.832C427.661 260.555 427.79 260.301 427.992 260.123C428.194 259.946 428.453 259.859 428.714 259.883H533.653C533.915 259.859 534.174 259.946 534.376 260.123C534.578 260.301 534.707 260.555 534.734 260.832V350.703C534.707 350.98 534.578 351.234 534.376 351.412C534.174 351.589 533.915 351.675 533.653 351.652Z" fill="#F0F0F0"/>
<path d="M522.247 269.826H440.121C439.834 269.827 439.56 269.948 439.357 270.163C439.155 270.378 439.041 270.669 439.04 270.973V338.537C439.041 338.841 439.155 339.133 439.357 339.348C439.56 339.563 439.834 339.684 440.121 339.684H522.247C522.533 339.684 522.808 339.563 523.01 339.348C523.213 339.133 523.327 338.841 523.327 338.537V270.973C523.327 270.669 523.213 270.378 523.01 270.163C522.808 269.948 522.533 269.827 522.247 269.826Z" fill="white"/>
<path d="M479.155 315.608C484.922 315.608 489.597 310.645 489.597 304.522C489.597 298.399 484.922 293.435 479.155 293.435C473.388 293.435 468.713 298.399 468.713 304.522C468.713 310.645 473.388 315.608 479.155 315.608Z" fill="#FFB8B8"/>
<path d="M494.432 339.684H471.281L472.037 321.613L472.217 321.412L474.816 318.497H483.083L486.148 321.649L486.395 321.903L492.919 328.543L494.432 339.684Z" fill="#2C5364"/>
<path d="M475.262 339.684H457.747C457.703 335.605 457.679 333.162 457.679 333.162L458.693 332.507L458.698 332.505H458.7L469.861 325.31L472.205 321.269L472.217 321.411L472.906 329.93C472.906 329.93 474.045 333.835 475.262 339.684Z" fill="#2F2E41"/>
<path d="M504.7 339.684H486.147C486.428 327.788 484.916 321.269 485.694 321.269L486.147 321.649L491.615 326.233L498.822 329.04H498.827L503.795 330.975L504.667 331.314V331.75C504.669 332.795 504.674 335.653 504.7 339.684Z" fill="#2F2E41"/>
<path d="M469.276 307.99C469.276 307.99 470.163 306.336 469.957 300.81C469.751 295.284 477.677 298.409 484.299 297.882C490.922 297.355 489.52 307.108 489.52 307.108C489.52 307.108 489.998 306.528 491.021 301.821C492.044 297.114 489.721 292.423 489.721 292.423C489.037 287.477 485.351 289.062 485.351 289.062C485.817 289.188 486.222 289.494 486.487 289.919C486.752 290.345 486.859 290.861 486.785 291.365C485.282 288.568 481.596 290.153 481.596 290.153C476.679 286.877 471.696 291.191 471.696 291.191C465.756 292.622 469.239 297.637 469.239 297.637C463.266 300.843 469.276 307.99 469.276 307.99Z" fill="#2F2E41"/>
<path d="M460.086 339.684H452.889C452.945 338.743 452.946 337.798 452.893 336.857C452.464 335.039 458.51 332.581 458.693 332.507L458.698 332.505H458.7L459.853 333.162L460.086 339.684Z" fill="#2F2E41"/>
<path d="M505.999 339.684H498.44L497.496 329.792L498.555 328.971C498.555 328.971 498.651 328.994 498.822 329.04H498.827C500.554 329.457 502.223 330.107 503.795 330.975C504.128 331.173 504.424 331.436 504.667 331.75C504.815 331.939 504.889 332.182 504.873 332.428C504.835 332.798 505.277 335.521 505.999 339.684Z" fill="#2F2E41"/>
<path d="M533.311 236.985H428.373C428.111 237.009 427.852 236.922 427.65 236.745C427.448 236.567 427.319 236.312 427.292 236.036V146.133C427.319 145.856 427.448 145.601 427.65 145.424C427.852 145.246 428.111 145.16 428.373 145.183H533.311C533.573 145.16 533.832 145.246 534.034 145.424C534.236 145.601 534.365 145.856 534.392 146.133V236.036C534.365 236.312 534.236 236.567 534.034 236.745C533.832 236.922 533.573 237.009 533.311 236.985Z" fill="#F0F0F0"/>
<path d="M521.905 155.127H439.779C439.493 155.127 439.218 155.248 439.015 155.463C438.813 155.678 438.699 155.97 438.698 156.274V223.837C438.699 224.142 438.813 224.433 439.015 224.648C439.218 224.863 439.493 224.984 439.779 224.985H521.905C522.192 224.984 522.466 224.863 522.669 224.648C522.871 224.433 522.985 224.142 522.986 223.837V156.274C522.985 155.97 522.871 155.678 522.669 155.463C522.466 155.248 522.192 155.127 521.905 155.127Z" fill="white"/>
<path d="M501.057 224.985C501.52 223.213 501.88 221.686 502.065 220.605C502.122 220.271 502.128 219.93 502.082 219.595C501.39 214.371 488.898 209.955 487.297 209.409L486.91 204.861L471.186 203.064L469.196 208.882L463.552 211.128C463.348 211.208 463.154 211.314 462.974 211.444C462.5 211.783 462.136 212.269 461.931 212.834C461.725 213.4 461.688 214.019 461.823 214.608L464.227 224.985H501.057L501.057 224.985Z" fill="#2C5364"/>
<path d="M468.461 224.985H456.259C456.697 222.094 457.088 219.536 457.342 217.91C458.274 211.99 462.337 211.485 462.974 211.444C463.024 211.439 463.055 211.439 463.058 211.439H465.625L468.461 224.985Z" fill="#2C5364"/>
<path d="M501.057 224.985H504.015C503.871 223.028 503.2 221.157 502.082 219.595C501.521 218.808 500.797 218.169 499.966 217.726L499.743 217.624L497.142 224.985H501.057Z" fill="#2C5364"/>
<path d="M478.434 200.185C484.687 200.185 489.755 194.803 489.755 188.164C489.755 181.526 484.687 176.144 478.434 176.144C472.181 176.144 467.112 181.526 467.112 188.164C467.112 194.803 472.181 200.185 478.434 200.185Z" fill="#A0616A"/>
<path d="M470.835 182.308C472.007 183.781 473.99 184.196 475.82 184.365C480.097 184.616 484.387 184.244 488.569 183.26C488.83 185.927 488.122 188.802 489.601 190.996C490.295 188.34 490.698 185.608 490.803 182.854C490.914 181.673 490.768 180.48 490.379 179.367C490.17 178.81 489.818 178.325 489.364 177.969C488.909 177.613 488.369 177.4 487.805 177.353C488.649 176.674 489.637 176.226 490.682 176.048L487.087 174.13L488.011 173.123L481.502 172.701L483.388 171.429C480.549 171.016 477.678 170.92 474.821 171.143C473.486 171.144 472.177 171.53 471.034 172.261C469.959 173.077 469.338 174.699 470.005 175.896C469.17 176.042 468.384 176.412 467.721 176.97C467.058 177.529 466.54 178.258 466.217 179.088C465.808 180.408 465.709 181.814 465.929 183.184C466.174 185.382 466.655 187.542 467.363 189.624" fill="#2F2E41"/>
<path d="M147.412 349.138V145.848C147.479 145.217 147.776 144.639 148.239 144.238C148.702 143.836 149.295 143.644 149.891 143.7H390.639C391.234 143.644 391.827 143.836 392.29 144.238C392.754 144.639 393.051 145.217 393.118 145.848V349.138C393.051 349.769 392.754 350.347 392.29 350.749C391.827 351.15 391.234 351.343 390.639 351.286H149.891C149.295 351.343 148.702 351.15 148.239 350.749C147.776 350.347 147.479 349.769 147.412 349.138Z" fill="#E4E4E4"/>
<path d="M173.58 169.145V324.147C173.581 324.845 173.842 325.514 174.307 326.007C174.772 326.501 175.402 326.778 176.059 326.779H364.47C365.127 326.778 365.757 326.501 366.222 326.007C366.687 325.514 366.948 324.845 366.949 324.147V169.145C366.948 168.447 366.687 167.778 366.222 167.285C365.757 166.791 365.127 166.514 364.47 166.513H176.059C175.402 166.514 174.772 166.791 174.307 167.285C173.842 167.778 173.581 168.447 173.58 169.145Z" fill="white"/>
<path d="M251.726 326.779H289.645L287.282 289.122L273.603 292.474L260.299 287.04L259.946 286.9L259.924 286.888C259.919 286.899 259.915 286.911 259.913 286.923C259.704 287.818 255.528 305.57 251.726 326.779Z" fill="#2C5364"/>
<path d="M228.874 295.27L232.417 326.779H264.375L260.299 287.04L260.26 286.654L259.946 286.899L259.913 286.923L252.029 293.03L228.874 295.27Z" fill="#2F2E41"/>
<path d="M284.037 326.779H312.657L313.07 301.973L292.009 294.556L287.282 289.122C287.282 289.122 285.789 305.471 284.037 326.779Z" fill="#2F2E41"/>
<path d="M215.096 326.779H238.813L237.292 304.207L228.875 295.27C228.875 295.27 222.214 310.103 215.096 326.779Z" fill="#2F2E41"/>
<path d="M305.908 326.779H318.42C318.365 319.55 318.331 314.554 318.331 313.145C318.394 310.966 317.946 308.804 317.028 306.854C316.11 304.904 314.75 303.227 313.07 301.973L306.751 304.207L305.908 326.779Z" fill="#2F2E41"/>
<path d="M307.86 277.273H241.565V247.606C241.565 237.439 248.311 225.216 256.604 220.358C268.243 213.54 280.967 213.42 291.513 220.031C296.478 223.151 300.594 227.587 303.459 232.903C306.325 238.22 307.841 244.235 307.86 250.36V277.273Z" fill="#2F2E41"/>
<path d="M297.036 263.313C303.38 250.993 299.115 235.545 287.511 228.81C275.907 222.076 261.358 226.603 255.014 238.924C248.671 251.244 252.936 266.691 264.54 273.426C276.144 280.161 290.693 275.633 297.036 263.313Z" fill="#FFB8B8"/>
<path d="M298.786 252.43H264.624L264.543 252.018C264.148 249.856 263.637 247.72 263.013 245.62C261.656 247.73 260.405 249.914 259.265 252.164L259.126 252.43H252.485C252.077 252.43 251.674 252.339 251.301 252.164C250.929 251.989 250.595 251.734 250.32 251.414C250.139 251.202 249.717 250.708 251.466 228.037C251.514 227.498 251.694 226.98 251.987 226.536C252.28 226.092 252.676 225.736 253.138 225.504C268.127 218.075 283.316 218.271 298.288 226.091H298.555L298.649 226.485C301.602 250.615 301.178 251.136 300.996 251.359C300.722 251.695 300.382 251.965 300.001 252.15C299.619 252.335 299.205 252.43 298.786 252.43Z" fill="#2F2E41"/>
</g>
<defs>
<clipPath id="clip0">
<rect width="700" height="550" fill="white"/>
</clipPath>
</defs>
</svg>
